<svg width="120" height="118" viewBox="0 0 120 118" fill="none" xmlns="http://www.w3.org/2000/svg">
<g clip-path="url(#clip0_148_2607)">
<path d="M56.6477 95.1119C53.1726 95.1119 50.3555 97.929 50.3555 101.404C50.3555 104.879 53.1726 107.696 56.6477 107.696C60.1228 107.696 62.9399 104.879 62.9399 101.404C62.9399 97.929 60.1228 95.1119 56.6477 95.1119Z" fill="#F8F8F8"/>
<path d="M36.4699 75.0904C32.9949 75.0904 30.1777 77.9075 30.1777 81.3826C30.1777 84.8577 32.9949 87.6748 36.4699 87.6748C39.945 87.6748 42.7622 84.8577 42.7622 81.3826C42.7622 77.9075 39.945 75.0904 36.4699 75.0904Z" fill="#F8F8F8"/>
<path d="M36.4699 34.7349C32.9949 34.7349 30.1777 37.552 30.1777 41.0271C30.1777 44.5022 32.9949 47.3193 36.4699 47.3193C39.945 47.3193 42.7622 44.5022 42.7622 41.0271C42.7622 37.552 39.945 34.7349 36.4699 34.7349Z" fill="#F8F8F8"/>
<path d="M62.8535 61.2053C62.8535 57.7302 60.0364 54.9131 56.5613 54.9131C53.0862 54.9131 50.269 57.7302 50.269 61.2053C50.269 64.6804 53.0862 67.4975 56.5613 67.4975C60.0364 67.4975 62.8535 64.6804 62.8535 61.2053Z" fill="#F8F8F8"/>
<path d="M22.5844 61.2053C22.5844 57.7302 19.7673 54.9131 16.2922 54.9131C12.8171 54.9131 10 57.7302 10 61.2053C10 64.6804 12.8171 67.4975 16.2922 67.4975C19.7673 67.4975 22.5844 64.6804 22.5844 61.2053Z" fill="#F8F8F8"/>
<path d="M21.0277 61.2055C21.0277 58.5992 18.9148 56.4863 16.3085 56.4863C13.7022 56.4863 11.5894 58.5992 11.5894 61.2055C11.5894 63.8118 13.7022 65.9247 16.3085 65.9247C18.9148 65.9247 21.0277 63.8118 21.0277 61.2055Z" fill="#F8F8F8"/>
<path d="M47.7322 11.4149V30.1706C47.7322 30.9527 48.365 31.5855 49.147 31.5855H62.8193C65.6206 31.5855 67.8957 33.8607 67.8957 36.6619V50.3982C67.8957 51.1802 68.5285 51.813 69.3106 51.813H83.3383C86.1396 51.813 88.4147 54.0882 88.4147 56.8894V65.5066C88.4147 68.3079 86.1396 70.583 83.3383 70.583H69.3106C68.5285 70.583 67.8957 71.2158 67.8957 71.9979V90.7537C67.8957 91.5357 68.5285 92.1685 69.3106 92.1685H88.0663C88.8484 92.1685 89.4812 91.5357 89.4812 90.7537V77.0956C89.4812 74.2944 91.7564 72.0192 94.5576 72.0192H108.585C109.367 72.0192 110 71.3864 110 70.6043V51.8486C110 51.0665 109.367 50.4337 108.585 50.4337H94.5576C91.7564 50.4337 89.4812 48.1586 89.4812 45.3573V31.6424C89.4812 30.8603 88.8484 30.2275 88.0663 30.2275H74.3941C71.5928 30.2275 69.3177 27.9524 69.3177 25.1511V11.4149C69.3177 10.6328 68.6849 10 67.9028 10H49.147C48.365 10 47.7322 10.6328 47.7322 11.4149Z" fill="#F8F8F8"/>
</g>
<defs>
<clipPath id="clip0_148_2607">
<rect width="100" height="97.6964" fill="white" transform="translate(10 10)"/>
</clipPath>
</defs>
</svg>
